# xmcd CD database file generated by Grip 2.96
# 
# Track frame offsets:
#       150
#       14075
#       25722
#       36110
#       47745
#       60010
#       70395
#       81750
#       94717
#       106910
#       119517
#       131222
#       142172
#       152565
#       162597
#       172947
#       183165
#       196420
#       204947
#       214635
#       228867
#       239397
#       249480
#       260877
# 
# Disc length: 3641 seconds
# 
# Revision: 0
# Processed by: cddbd v1.4PL0 Copyright (c) Steve Scherf et al.
# Submitted via: Grip 2.96
# 
DISCID=4d0e3718
DTITLE=The 5 Satins - The 5 Satins Sing Their Greatest Hits
DYEAR=1900
DGENRE=
TTITLE0=In The Still Of The Night
TTITLE1=Shadows
TTITLE2=Wonderful Girl
TTITLE3=You Can Count On Me
TTITLE4=I'll Be Seeing You
TTITLE5=Oh Happy Day
TTITLE6=A Million To One
TTITLE7=A Nite Like This
TTITLE8=I Ain't Gonna Dance
TTITLE9=To The Aisle
TTITLE10=All Mine
TTITLE11=Our Anniversary
TTITLE12=Our Love Is Forever
TTITLE13=A Nite To Remember
TTITLE14=Candlelight
TTITLE15=I Got Time
TTITLE16=Land Of Broken Hearts
TTITLE17=The Jones Girl
TTITLE18=Pretty Baby
TTITLE19=Weeping Willow
TTITLE20=Wish I Had My Baby
TTITLE21=Toni My Love
TTITLE22=Love With No Love In Return
TTITLE23=The Time
EXTD=
EXTT0=
EXTT1=
EXTT2=
EXTT3=
EXTT4=
EXTT5=
EXTT6=
EXTT7=
EXTT8=
EXTT9=
EXTT10=
EXTT11=
EXTT12=
EXTT13=
EXTT14=
EXTT15=
EXTT16=
EXTT17=
EXTT18=
EXTT19=
EXTT20=
EXTT21=
EXTT22=
EXTT23=
PLAYORDER=
